<?xml version="1.0" standalone="no"?>
<!DOCTYPE svg PUBLIC "-//W3C//DTD SVG 20010904//EN"
 "http://www.w3.org/TR/2001/REC-SVG-20010904/DTD/svg10.dtd">
<svg version="1.0" xmlns="http://www.w3.org/2000/svg"
 width="500.000000pt" height="500.000000pt" viewBox="0 0 500.000000 500.000000"
 preserveAspectRatio="xMidYMid meet">

<g transform="translate(0.000000,500.000000) scale(0.100000,-0.100000)"
fill="#000000" stroke="none">
<path d="M1113 3723 c-59 -8 -63 -25 -63 -249 0 -177 2 -204 18 -223 16 -20
30 -21 255 -28 130 -3 237 -8 237 -11 0 -9 -58 -73 -268 -294 -118 -125 -222
-238 -231 -250 -13 -19 -15 -51 -13 -198 3 -151 6 -181 24 -217 l20 -43 -31
-39 c-100 -126 -109 -258 -26 -381 l35 -52 -19 -32 c-11 -17 -38 -49 -60 -71
-23 -21 -41 -47 -41 -58 0 -54 92 -147 198 -199 67 -33 67 -33 222 -33 153 0
156 0 208 30 61 33 111 81 150 142 15 24 33 43 39 43 15 0 44 -54 67 -127 10
-31 29 -62 44 -74 24 -19 37 -21 131 -17 101 3 104 4 127 33 13 17 29 48 35
70 10 38 26 72 48 105 17 25 47 -14 77 -98 41 -114 37 -112 174 -112 111 0
118 1 140 25 l24 25 26 -25 c25 -24 31 -25 149 -25 67 0 131 5 142 10 10 6 33
38 49 71 l31 60 90 -3 91 -3 13 -39 c8 -22 23 -51 33 -65 l19 -26 247 0 c298
0 280 -8 291 139 l7 94 87 4 c144 7 241 69 297 191 25 54 28 74 28 152 0 79
-3 97 -28 145 -16 30 -42 72 -58 92 -30 39 -126 93 -184 104 -19 3 -34 9 -34
12 0 4 26 34 59 67 72 74 122 147 153 223 22 55 23 71 26 377 4 348 -1 398
-47 500 -41 89 -136 186 -225 230 -39 19 -95 40 -125 45 -69 13 -597 13 -676
0 -96 -15 -194 -70 -263 -146 -81 -88 -142 -220 -142 -308 0 -23 -3 -58 -6
-78 l-7 -38 -218 0 c-120 0 -220 4 -223 9 -7 10 31 62 108 150 31 36 57 72 57
80 3 39 -3 288 -7 303 -3 9 -11 19 -19 22 -18 6 -1218 16 -1262 9z m1215 -203
l2 -125 -81 -85 c-45 -47 -108 -114 -141 -150 -33 -36 -158 -164 -277 -285
l-216 -220 358 -3 357 -2 0 -170 0 -170 -605 0 -605 0 0 161 0 162 158 165
c86 91 232 240 325 332 92 92 167 169 167 171 0 2 -145 4 -322 4 l-323 0 -3
173 -2 172 602 -2 603 -3 3 -125z m1513 102 c33 -13 82 -45 118 -78 100 -91
128 -164 138 -361 l6 -133 -170 0 -171 0 -4 74 c-4 83 -20 114 -78 154 -32 21
-42 22 -242 22 -237 0 -261 -5 -298 -66 -19 -30 -25 -56 -28 -126 l-4 -88
-143 0 c-78 0 -157 -3 -174 -6 l-31 -6 0 138 c0 147 11 207 49 283 49 96 162
184 269 211 20 5 188 8 372 7 321 -2 337 -3 391 -25z m-201 -402 c25 -13 40
-62 40 -130 0 -42 5 -64 19 -81 18 -22 18 -24 0 -53 -14 -24 -19 -51 -19 -113
0 -126 6 -123 -241 -123 l-201 0 -29 29 c-33 34 -34 41 -22 291 9 201 -5 190
243 190 106 0 200 -4 210 -10z m-1010 -283 l0 -133 -220 -3 -220 -3 0 60 c0
32 -3 93 -6 135 l-7 77 227 0 226 0 0 -133z m-522 -91 l-3 -121 -129 -3 c-72
-1 -136 0 -144 3 -19 7 30 74 125 167 136 134 155 128 151 -46z m996 42 c3
-18 7 -59 10 -90 3 -37 12 -69 26 -88 40 -56 58 -60 292 -60 189 0 217 2 248
19 47 25 78 90 86 180 l7 71 165 0 165 0 -6 -132 c-3 -77 -12 -154 -21 -182
-39 -121 -153 -240 -265 -276 -63 -20 -89 -22 -362 -23 -322 -1 -363 4 -459
55 -165 87 -239 236 -240 486 l0 72 175 0 174 0 5 -32z m-437 -176 c6 -4 14
-25 18 -47 11 -63 80 -197 129 -252 25 -27 68 -65 95 -84 60 -41 63 -58 25
-153 -40 -102 -68 -112 -54 -21 9 60 -4 103 -33 110 -12 3 -83 4 -157 3 l-134
-3 -29 -70 c-44 -106 -58 -133 -72 -139 -15 -5 -69 136 -66 174 1 14 4 130 7
258 l5 232 127 0 c70 0 132 -4 139 -8z m-1162 -537 c28 -13 70 -41 95 -64 l45
-41 -70 -64 c-61 -56 -72 -62 -85 -50 -30 26 -90 44 -148 44 -63 0 -87 -14
-80 -47 4 -21 38 -33 183 -67 179 -42 229 -92 230 -226 0 -157 -90 -239 -271
-248 -102 -5 -176 8 -250 42 -55 25 -124 81 -124 100 0 6 27 40 60 76 l59 64
23 -21 c43 -40 118 -66 196 -67 63 -1 76 2 88 19 34 45 0 68 -144 96 -116 23
-172 49 -211 95 -91 111 -47 296 85 359 86 41 232 41 319 0z m1965 -130 c0
-174 -4 -190 -46 -167 -16 9 -134 289 -134 318 0 11 20 14 90 14 l90 0 0 -165z
m-1534 -70 c50 -150 75 -213 79 -200 4 11 15 43 25 70 10 28 33 97 50 155 18
58 39 127 48 153 l17 48 79 -3 79 -3 70 -207 c39 -115 74 -208 77 -208 4 0 26
62 49 138 24 75 54 169 67 207 l23 70 105 3 c58 1 106 -1 106 -6 0 -13 -41
-141 -146 -462 -52 -156 -94 -290 -94 -297 0 -10 -24 -13 -93 -13 l-92 0 -24
68 c-13 37 -35 94 -49 127 -13 33 -37 100 -52 150 -16 49 -30 83 -33 75 -3 -8
-15 -53 -28 -100 -12 -47 -29 -98 -37 -115 -9 -16 -28 -68 -43 -115 l-27 -85
-89 -3 -89 -3 -26 78 c-15 43 -45 130 -68 193 -39 109 -122 360 -153 463 l-14
48 105 -3 105 -3 73 -220z m130 200 c-15 -61 -49 -136 -59 -132 -10 3 -67 129
-67 149 0 4 30 8 66 8 66 0 66 0 60 -25z m1160 -22 c24 -67 139 -350 169 -418
14 -31 125 -314 125 -318 0 -1 -46 -1 -103 1 l-103 3 -30 61 -29 61 -125 3
c-69 1 -133 0 -142 -2 -17 -5 -58 -83 -58 -110 0 -9 -26 -13 -97 -16 -54 -2
-101 -1 -105 2 -12 9 47 176 147 410 13 30 51 126 85 213 l62 157 93 0 93 0
18 -47z m751 31 c65 -19 136 -79 159 -133 37 -89 22 -237 -31 -307 -14 -18
-51 -45 -82 -61 -51 -25 -72 -28 -170 -32 l-113 -3 0 -114 0 -114 -95 0 -94 0
-1 383 c0 211 3 386 6 390 4 4 88 7 187 7 135 0 193 -4 234 -16z"/>
<path d="M3095 1893 c-9 -24 -55 -156 -55 -160 0 -2 34 -3 76 -3 68 0 75 2 69
17 -22 60 -71 163 -76 163 -4 0 -10 -8 -14 -17z"/>
<path d="M3742 1928 l3 -73 86 -3 c79 -3 87 -1 112 22 34 32 34 66 1 100 -25
24 -33 26 -116 26 l-89 0 3 -72z"/>
</g>
</svg>
